<svg width="183" height="32" viewBox="0 0 183 32" fill="none" xmlns="http://www.w3.org/2000/svg">
<g clip-path="url(#clip0_128_4473)">
<path d="M64.1507 8.62177C65.2999 8.25345 66.5195 8.34553 67.7079 8.3355C72.2901 8.33914 76.8723 8.32821 81.4545 8.34097C81.0042 9.62735 80.5483 10.9119 80.1062 12.201C75.6418 12.2156 71.1756 12.2001 66.7113 12.2083C66.2381 12.212 65.7996 12.5037 65.5667 12.9058C65.2944 13.3561 65.3301 13.9533 65.6516 14.369C65.9275 14.761 66.4199 14.9625 66.8913 14.9516C70.1205 14.9516 73.3498 14.9525 76.58 14.9507C77.4634 14.9415 78.3586 15.0528 79.1872 15.3728C80.4259 15.8386 81.4353 16.8059 82.0702 17.9537C82.7307 19.1553 82.854 20.6049 82.5407 21.9277C82.2191 23.2734 81.3467 24.4549 80.2195 25.2454C79.2402 25.9291 78.038 26.2473 76.8513 26.2564C71.4442 26.2564 66.038 26.2564 60.6318 26.2564C61.0813 24.9618 61.5326 23.6681 61.9857 22.3745C66.8474 22.3745 71.7091 22.3772 76.5709 22.3736C77.3793 22.3845 78.1229 21.6816 78.1421 20.8729C78.2033 20.0232 77.4369 19.2073 76.5773 19.2474C73.1361 19.2474 69.6939 19.2501 66.2527 19.2465C65.0112 19.2538 63.7396 18.9466 62.7256 18.2099C61.6239 17.4095 60.7899 16.2124 60.5213 14.8704C60.2719 13.6369 60.4099 12.3031 61.0237 11.1936C61.6934 9.98746 62.8124 9.00923 64.1507 8.62177Z" fill="#8E49E9"/>
<path d="M88.6905 9.07214C89.7702 8.52239 90.9962 8.32547 92.1984 8.33458C97.1113 8.34279 102.025 8.32 106.938 8.34644C106.485 9.65288 106.058 10.9675 105.609 12.2749C101.687 12.273 97.7644 12.2758 93.8427 12.274C93.0352 12.2411 92.1819 12.3323 91.5014 12.8027C90.7998 13.233 90.3887 14.0417 90.3796 14.854C90.3695 16.4057 90.3768 17.9574 90.3759 19.51C90.3677 20.16 90.5796 20.8283 91.0391 21.3014C91.6411 21.9268 92.5272 22.2067 93.3832 22.204C97.9005 22.2058 102.419 22.2031 106.937 22.2049C106.496 23.556 106.055 24.9062 105.612 26.2564C101.748 26.2564 97.885 26.2564 94.0217 26.2564C92.9904 26.2345 91.9526 26.3148 90.9268 26.1844C89.4496 26.0057 88.0209 25.3283 87.0215 24.2152C86.0605 23.195 85.4539 21.8293 85.4475 20.4198C85.4448 18.354 85.4466 16.2881 85.4466 14.2231C85.4247 12.0688 86.784 10.0312 88.6905 9.07214Z" fill="#8E49E9"/>
<path d="M118.829 8.3355C120.647 8.34097 122.466 8.32365 124.284 8.34462C127.85 14.3207 131.44 20.284 135.014 26.2564C133.113 26.25 131.213 26.2683 129.313 26.2473C128.821 25.3657 128.284 24.5096 127.793 23.628C123.585 23.6107 119.375 23.6125 115.168 23.6271C114.672 24.5105 114.151 25.3785 113.646 26.2564C111.792 26.2564 109.939 26.2564 108.085 26.2564C111.667 20.2831 115.248 14.3088 118.829 8.3355ZM121.466 13.0161C120.042 15.4503 118.596 17.8717 117.164 20.3004C120.045 20.3031 122.927 20.3004 125.809 20.3022C124.357 17.8762 122.944 15.4247 121.466 13.0161Z" fill="#8E49E9"/>
<path d="M137.078 8.3355C142.276 8.3355 147.475 8.33459 152.673 8.3355C154.051 8.33733 155.459 8.68103 156.587 9.49607C157.804 10.3795 158.739 11.6932 159.039 13.1784C159.381 14.8358 159.039 16.6409 158.028 18.0103C157.152 19.2501 155.815 20.16 154.326 20.4809C153.334 20.7189 152.31 20.6614 151.301 20.6678C148.199 20.6678 145.096 20.6678 141.995 20.6678C141.994 22.5313 141.995 24.3939 141.994 26.2564C140.354 26.2546 138.716 26.2592 137.076 26.2546C137.08 20.2813 137.076 14.3088 137.078 8.3355ZM141.995 12.3305C141.993 13.781 141.996 15.2324 141.994 16.6829C145.37 16.6819 148.747 16.6892 152.122 16.6792C152.99 16.6783 153.824 16.1331 154.153 15.329C154.476 14.5769 154.328 13.6424 153.757 13.0489C153.333 12.5548 152.674 12.3177 152.033 12.3314C148.687 12.3296 145.341 12.3323 141.995 12.3305Z" fill="#8E49E9"/>
<path d="M162.474 8.3355C169.297 8.33914 176.12 8.32729 182.943 8.34188C182.493 9.66929 182.051 11.0003 181.605 12.3287C176.863 12.3323 172.12 12.3305 167.378 12.3305C167.37 13.3552 167.376 14.3818 167.375 15.4074C172.185 15.4092 176.995 15.4047 181.806 15.4092C181.401 16.619 180.981 17.8243 180.597 19.0414C176.191 19.0851 171.782 19.0468 167.375 19.0596C167.374 20.1272 167.373 21.1938 167.375 22.2605C172.564 22.2614 177.753 22.2605 182.942 22.2614C182.501 23.5934 182.046 24.9217 181.608 26.2546C175.229 26.2564 168.85 26.2591 162.471 26.2537C162.476 20.2813 162.471 14.3079 162.474 8.3355Z" fill="#8E49E9"/>
<path d="M26.6053 0.0875267C27.759 -0.0173166 28.9192 0.012768 30.0757 0.00820955C38.8455 0.00820955 47.6152 0.00182878 56.384 0.00638719C56.3822 2.65847 56.3804 5.31146 56.3849 7.96354C47.1301 7.96718 37.8744 7.95989 28.6196 7.96536C26.0983 7.96536 23.4819 8.53242 21.4275 10.0558C19.9759 11.1107 18.961 12.6915 18.4613 14.4018C18.1041 15.5925 17.968 16.8387 17.9625 18.0786C15.3051 18.0686 12.6477 18.0786 9.99115 18.0732C9.99754 15.36 10.4479 12.6195 11.5523 10.127C12.8422 7.1567 15.0676 4.61311 17.8182 2.9028C20.4546 1.25357 23.5167 0.351003 26.6053 0.0875267Z" fill="url(#paint0_linear_128_4473)"/>
<path d="M34.5683 15.6527C36.9663 15.6472 39.3643 15.6463 41.7623 15.6527C41.7467 17.8799 41.4225 20.1217 40.6158 22.2058C39.579 24.9372 37.699 27.3395 35.2873 28.9951C32.364 31.0254 28.7748 31.9663 25.2377 31.9927C16.8343 31.9927 8.43175 31.99 0.0292358 31.99C0.0374575 29.5959 0.0338036 27.2027 0.0301496 24.8087C7.8535 24.8123 15.6768 24.8087 23.4993 24.8068C24.5334 24.7923 25.572 24.8296 26.6007 24.7056C28.4186 24.4951 30.2392 23.9006 31.6771 22.741C32.6801 21.9433 33.4338 20.8565 33.8914 19.665C34.382 18.3904 34.5757 17.0138 34.5683 15.6527Z" fill="url(#paint1_linear_128_4473)"/>
</g>
<defs>
<linearGradient id="paint0_linear_128_4473" x1="56.3849" y1="0.00474548" x2="44.1583" y2="31.3893" gradientUnits="userSpaceOnUse">
<stop stop-color="#F96544"/>
<stop offset="0.255" stop-color="#F93655"/>
<stop offset="0.57" stop-color="#C548B9"/>
<stop offset="0.88" stop-color="#8E49E9"/>
</linearGradient>
<linearGradient id="paint1_linear_128_4473" x1="41.7623" y1="15.6482" x2="30.6624" y2="43.99" gradientUnits="userSpaceOnUse">
<stop stop-color="#F96544"/>
<stop offset="0.255" stop-color="#F93655"/>
<stop offset="0.57" stop-color="#C548B9"/>
<stop offset="0.88" stop-color="#8E49E9"/>
</linearGradient>
<clipPath id="clip0_128_4473">
<rect width="183" height="32" fill="white"/>
</clipPath>
</defs>
</svg>
