<svg width="613" height="495" viewBox="0 0 613 495" fill="none" xmlns="http://www.w3.org/2000/svg">
<path d="M168.496 88.8386C163.479 81.5645 165.283 71.5477 172.888 67.0483C201.126 50.3419 232.617 39.8694 265.236 36.337C274.021 35.3856 281.464 42.327 281.803 51.157L282.758 76.07C283.096 84.9001 276.194 92.2566 267.433 93.4087C245.6 96.28 224.512 103.293 205.308 114.069C197.602 118.393 187.669 116.636 182.652 109.362L168.496 88.8386Z" fill="#F96544"/>
<path d="M89.689 189.691C81.4177 186.581 77.1822 177.326 80.8593 169.291C94.5121 139.457 114.393 112.885 139.162 91.3683C145.833 85.5732 155.907 87.0249 161.224 94.0824L176.227 113.995C181.544 121.052 180.075 131.032 173.539 136.978C157.249 151.797 143.936 169.59 134.316 189.399C130.456 197.348 121.297 201.574 113.025 198.464L89.689 189.691Z" fill="#C548B9"/>
<path d="M290 51C290 42.1634 297.173 34.9421 305.988 35.5562C348.894 38.5455 390.222 53.5198 425.191 78.9261C464.486 107.476 493.734 147.732 508.743 193.926C523.752 240.12 523.752 289.88 508.743 336.074C493.734 382.268 464.486 422.524 425.191 451.074C385.896 479.623 338.571 495 290 495C241.429 495 194.104 479.623 154.809 451.074C115.514 422.524 86.2663 382.268 71.257 336.074C57.9001 294.966 56.4296 251.034 66.8454 209.303C68.9854 200.73 78.0699 196.14 86.4739 198.87L110.185 206.575C118.589 209.305 123.11 218.323 121.167 226.943C114.35 257.186 115.761 288.811 125.402 318.481C136.696 353.241 158.704 383.533 188.273 405.016C217.841 426.498 253.451 438.069 290 438.069C326.549 438.069 362.159 426.498 391.727 405.016C421.296 383.533 443.304 353.241 454.598 318.481C465.892 283.721 465.892 246.279 454.598 211.519C443.304 176.759 421.296 146.467 391.727 124.984C366.488 106.647 336.847 95.5321 305.978 92.6702C297.179 91.8545 290 84.7678 290 75.9313V51Z" fill="url(#paint0_angular_121_1675)"/>
<g clip-path="url(#clip0_121_1675)">
<path d="M251.689 254.855C253.278 254.349 254.964 254.475 256.607 254.462C262.942 254.467 269.277 254.452 275.612 254.469C274.989 256.238 274.359 258.004 273.748 259.777C267.576 259.797 261.401 259.775 255.229 259.787C254.575 259.792 253.969 260.193 253.647 260.746C253.27 261.365 253.32 262.186 253.764 262.758C254.146 263.297 254.826 263.574 255.478 263.559C259.943 263.559 264.407 263.56 268.873 263.557C270.094 263.545 271.332 263.698 272.477 264.138C274.19 264.778 275.585 266.108 276.463 267.687C277.376 269.339 277.547 271.332 277.114 273.151C276.669 275.001 275.463 276.626 273.904 277.713C272.551 278.653 270.889 279.09 269.248 279.103C261.773 279.103 254.298 279.103 246.824 279.103C247.446 277.323 248.07 275.544 248.696 273.765C255.417 273.765 262.139 273.769 268.86 273.764C269.978 273.779 271.006 272.813 271.033 271.701C271.117 270.532 270.058 269.41 268.869 269.466C264.112 269.466 259.353 269.469 254.595 269.464C252.879 269.474 251.121 269.052 249.719 268.039C248.196 266.938 247.043 265.292 246.672 263.447C246.327 261.751 246.517 259.917 247.366 258.392C248.292 256.733 249.839 255.388 251.689 254.855Z" fill="#8E49E9"/>
<path d="M285.616 255.474C287.109 254.718 288.803 254.447 290.466 254.46C297.258 254.471 304.051 254.44 310.843 254.476C310.217 256.273 309.627 258.08 309.006 259.878C303.584 259.875 298.161 259.879 292.739 259.877C291.622 259.831 290.443 259.957 289.502 260.604C288.532 261.195 287.964 262.307 287.951 263.424C287.937 265.558 287.947 267.691 287.946 269.826C287.935 270.72 288.228 271.639 288.863 272.289C289.695 273.149 290.92 273.534 292.104 273.53C298.349 273.533 304.595 273.529 310.842 273.532C310.232 275.389 309.622 277.246 309.011 279.102C303.668 279.102 298.327 279.102 292.986 279.102C291.56 279.072 290.126 279.183 288.707 279.003C286.665 278.758 284.69 277.826 283.308 276.296C281.98 274.893 281.141 273.015 281.132 271.077C281.129 268.237 281.131 265.396 281.131 262.557C281.101 259.594 282.98 256.793 285.616 255.474Z" fill="#8E49E9"/>
<path d="M327.283 254.461C329.796 254.469 332.311 254.445 334.824 254.474C339.755 262.691 344.718 270.89 349.659 279.102C347.03 279.094 344.403 279.119 341.777 279.09C341.097 277.878 340.354 276.701 339.675 275.488C333.858 275.465 328.038 275.467 322.221 275.487C321.535 276.702 320.815 277.895 320.117 279.102C317.554 279.102 314.992 279.102 312.429 279.102C317.381 270.889 322.332 262.674 327.283 254.461ZM330.928 260.897C328.96 264.244 326.961 267.573 324.981 270.913C328.964 270.917 332.949 270.913 336.933 270.915C334.925 267.58 332.971 264.209 330.928 260.897Z" fill="#8E49E9"/>
<path d="M352.513 254.461C359.699 254.461 366.886 254.46 374.073 254.461C375.977 254.464 377.925 254.937 379.483 256.057C381.167 257.272 382.459 259.078 382.874 261.12C383.346 263.399 382.874 265.881 381.476 267.764C380.265 269.469 378.416 270.72 376.357 271.161C374.987 271.489 373.571 271.41 372.176 271.418C367.887 271.418 363.598 271.418 359.31 271.418C359.309 273.981 359.31 276.542 359.309 279.103C357.042 279.1 354.776 279.107 352.509 279.1C352.515 270.887 352.509 262.675 352.513 254.461ZM359.31 259.955C359.308 261.949 359.311 263.945 359.309 265.939C363.977 265.938 368.645 265.948 373.311 265.934C374.511 265.933 375.664 265.183 376.119 264.078C376.566 263.043 376.361 261.758 375.571 260.942C374.985 260.263 374.074 259.937 373.187 259.956C368.561 259.953 363.936 259.957 359.31 259.955Z" fill="#8E49E9"/>
<path d="M387.623 254.461C397.056 254.467 406.489 254.45 415.922 254.47C415.299 256.295 414.688 258.126 414.071 259.952C407.515 259.957 400.958 259.955 394.402 259.955C394.391 261.364 394.4 262.775 394.399 264.185C401.048 264.188 407.699 264.182 414.349 264.188C413.79 265.851 413.209 267.509 412.677 269.182C406.586 269.242 400.491 269.19 394.399 269.207C394.397 270.675 394.396 272.142 394.399 273.608C401.572 273.61 408.746 273.608 415.919 273.61C415.31 275.441 414.681 277.268 414.075 279.1C405.256 279.103 396.437 279.107 387.619 279.099C387.625 270.887 387.619 262.674 387.623 254.461Z" fill="#8E49E9"/>
<path d="M199.782 243.121C201.377 242.977 202.981 243.018 204.58 243.012C216.704 243.012 228.829 243.003 240.952 243.009C240.949 246.656 240.947 250.304 240.953 253.95C228.158 253.955 215.362 253.945 202.567 253.953C199.081 253.953 195.464 254.732 192.624 256.827C190.617 258.277 189.214 260.451 188.523 262.803C188.029 264.44 187.841 266.154 187.833 267.858C184.159 267.845 180.486 267.858 176.813 267.851C176.822 264.12 177.444 260.352 178.971 256.925C180.755 252.841 183.831 249.343 187.634 246.992C191.279 244.724 195.512 243.483 199.782 243.121Z" fill="url(#paint1_linear_121_1675)"/>
<path d="M210.791 264.523C214.106 264.515 217.422 264.514 220.737 264.523C220.715 267.585 220.267 270.668 219.152 273.533C217.718 277.289 215.119 280.592 211.785 282.869C207.744 285.66 202.782 286.954 197.891 286.99C186.274 286.99 174.657 286.987 163.04 286.987C163.052 283.695 163.047 280.404 163.042 277.112C173.858 277.117 184.673 277.112 195.488 277.11C196.918 277.09 198.354 277.141 199.776 276.971C202.289 276.681 204.806 275.864 206.794 274.269C208.181 273.172 209.223 271.678 209.855 270.04C210.534 268.287 210.801 266.394 210.791 264.523Z" fill="url(#paint2_linear_121_1675)"/>
</g>
<path d="M551.585 223V209.909H556.009C557.036 209.909 557.875 210.094 558.527 210.465C559.183 210.832 559.669 211.328 559.984 211.955C560.3 212.581 560.457 213.28 560.457 214.051C560.457 214.822 560.3 215.523 559.984 216.154C559.673 216.785 559.192 217.288 558.54 217.663C557.888 218.033 557.053 218.219 556.034 218.219H552.864V216.812H555.983C556.686 216.812 557.251 216.691 557.677 216.448C558.103 216.205 558.412 215.877 558.604 215.464C558.8 215.046 558.898 214.575 558.898 214.051C558.898 213.527 558.8 213.058 558.604 212.645C558.412 212.232 558.101 211.908 557.67 211.673C557.24 211.435 556.669 211.315 555.957 211.315H553.17V223H551.585ZM562.806 223V213.182H564.264V214.665H564.366C564.545 214.179 564.869 213.785 565.338 213.482C565.806 213.18 566.335 213.028 566.923 213.028C567.034 213.028 567.172 213.031 567.338 213.035C567.505 213.039 567.63 213.045 567.716 213.054V214.588C567.664 214.575 567.547 214.556 567.364 214.531C567.185 214.501 566.995 214.486 566.795 214.486C566.318 214.486 565.892 214.586 565.517 214.786C565.146 214.982 564.852 215.255 564.635 215.604C564.422 215.95 564.315 216.344 564.315 216.787V223H562.806ZM573.321 223.205C572.375 223.205 571.559 222.996 570.873 222.578C570.191 222.156 569.665 221.568 569.294 220.814C568.928 220.055 568.745 219.173 568.745 218.168C568.745 217.162 568.928 216.276 569.294 215.509C569.665 214.737 570.181 214.136 570.841 213.706C571.506 213.271 572.282 213.054 573.168 213.054C573.679 213.054 574.184 213.139 574.683 213.31C575.181 213.48 575.635 213.757 576.044 214.141C576.453 214.52 576.779 215.023 577.022 215.649C577.265 216.276 577.387 217.047 577.387 217.963V218.602H569.819V217.298H575.853C575.853 216.744 575.742 216.25 575.52 215.815C575.303 215.381 574.992 215.038 574.587 214.786C574.186 214.535 573.713 214.409 573.168 214.409C572.567 214.409 572.047 214.558 571.608 214.857C571.174 215.151 570.839 215.534 570.605 216.007C570.37 216.48 570.253 216.987 570.253 217.528V218.398C570.253 219.139 570.381 219.768 570.637 220.283C570.897 220.795 571.257 221.185 571.717 221.453C572.177 221.717 572.712 221.849 573.321 221.849C573.718 221.849 574.076 221.794 574.395 221.683C574.719 221.568 574.998 221.398 575.233 221.172C575.467 220.942 575.648 220.656 575.776 220.315L577.233 220.724C577.08 221.219 576.822 221.653 576.46 222.028C576.098 222.399 575.65 222.689 575.118 222.898C574.585 223.102 573.986 223.205 573.321 223.205ZM586.636 215.381L585.281 215.764C585.196 215.538 585.07 215.319 584.904 215.106C584.742 214.888 584.52 214.71 584.239 214.569C583.958 214.428 583.598 214.358 583.159 214.358C582.558 214.358 582.057 214.496 581.657 214.773C581.26 215.046 581.062 215.393 581.062 215.815C581.062 216.19 581.199 216.487 581.471 216.704C581.744 216.921 582.17 217.102 582.75 217.247L584.207 217.605C585.085 217.818 585.739 218.144 586.169 218.583C586.6 219.018 586.815 219.578 586.815 220.264C586.815 220.827 586.653 221.33 586.329 221.773C586.01 222.216 585.562 222.565 584.987 222.821C584.412 223.077 583.743 223.205 582.98 223.205C581.978 223.205 581.15 222.987 580.493 222.553C579.837 222.118 579.422 221.483 579.247 220.648L580.679 220.29C580.815 220.818 581.073 221.214 581.452 221.479C581.836 221.743 582.336 221.875 582.954 221.875C583.657 221.875 584.216 221.726 584.629 221.428C585.047 221.125 585.255 220.763 585.255 220.341C585.255 220 585.136 219.714 584.897 219.484C584.659 219.25 584.292 219.075 583.798 218.96L582.162 218.577C581.262 218.364 580.602 218.033 580.18 217.586C579.762 217.134 579.554 216.57 579.554 215.892C579.554 215.338 579.709 214.848 580.02 214.422C580.336 213.996 580.764 213.661 581.305 213.418C581.85 213.175 582.468 213.054 583.159 213.054C584.13 213.054 584.893 213.267 585.447 213.693C586.005 214.119 586.402 214.682 586.636 215.381ZM591.975 223.23C591.353 223.23 590.788 223.113 590.281 222.879C589.774 222.64 589.371 222.297 589.073 221.849C588.775 221.398 588.626 220.852 588.626 220.213C588.626 219.651 588.736 219.195 588.958 218.845C589.18 218.491 589.476 218.214 589.846 218.014C590.217 217.814 590.626 217.665 591.074 217.567C591.525 217.464 591.979 217.384 592.435 217.324C593.032 217.247 593.515 217.19 593.886 217.151C594.261 217.109 594.534 217.038 594.704 216.94C594.879 216.842 594.966 216.672 594.966 216.429V216.378C594.966 215.747 594.794 215.257 594.449 214.908C594.108 214.558 593.59 214.384 592.895 214.384C592.175 214.384 591.611 214.541 591.202 214.857C590.792 215.172 590.505 215.509 590.339 215.866L588.907 215.355C589.162 214.759 589.503 214.294 589.93 213.962C590.36 213.625 590.829 213.391 591.336 213.259C591.847 213.122 592.35 213.054 592.844 213.054C593.16 213.054 593.522 213.092 593.931 213.169C594.344 213.241 594.743 213.393 595.126 213.623C595.514 213.853 595.836 214.2 596.091 214.665C596.347 215.129 596.475 215.751 596.475 216.531V223H594.966V221.67H594.89C594.787 221.884 594.617 222.112 594.378 222.354C594.14 222.597 593.822 222.804 593.426 222.974C593.03 223.145 592.546 223.23 591.975 223.23ZM592.205 221.875C592.802 221.875 593.305 221.758 593.714 221.523C594.127 221.289 594.438 220.987 594.647 220.616C594.86 220.245 594.966 219.855 594.966 219.446V218.065C594.903 218.142 594.762 218.212 594.545 218.276C594.331 218.336 594.084 218.389 593.803 218.436C593.526 218.479 593.256 218.517 592.991 218.551C592.731 218.581 592.52 218.607 592.358 218.628C591.966 218.679 591.6 218.762 591.259 218.877C590.922 218.988 590.65 219.156 590.441 219.382C590.236 219.604 590.134 219.906 590.134 220.29C590.134 220.814 590.328 221.21 590.716 221.479C591.108 221.743 591.604 221.875 592.205 221.875ZM600.737 209.909V223H599.228V209.909H600.737ZM607.616 223.205C606.67 223.205 605.854 222.996 605.168 222.578C604.486 222.156 603.96 221.568 603.589 220.814C603.223 220.055 603.04 219.173 603.04 218.168C603.04 217.162 603.223 216.276 603.589 215.509C603.96 214.737 604.476 214.136 605.136 213.706C605.801 213.271 606.577 213.054 607.463 213.054C607.974 213.054 608.479 213.139 608.978 213.31C609.476 213.48 609.93 213.757 610.339 214.141C610.748 214.52 611.074 215.023 611.317 215.649C611.56 216.276 611.682 217.047 611.682 217.963V218.602H604.113V217.298H610.148C610.148 216.744 610.037 216.25 609.815 215.815C609.598 215.381 609.287 215.038 608.882 214.786C608.481 214.535 608.008 214.409 607.463 214.409C606.862 214.409 606.342 214.558 605.903 214.857C605.469 215.151 605.134 215.534 604.9 216.007C604.665 216.48 604.548 216.987 604.548 217.528V218.398C604.548 219.139 604.676 219.768 604.932 220.283C605.192 220.795 605.552 221.185 606.012 221.453C606.472 221.717 607.007 221.849 607.616 221.849C608.013 221.849 608.371 221.794 608.69 221.683C609.014 221.568 609.293 221.398 609.528 221.172C609.762 220.942 609.943 220.656 610.071 220.315L611.528 220.724C611.375 221.219 611.117 221.653 610.755 222.028C610.393 222.399 609.945 222.689 609.412 222.898C608.88 223.102 608.281 223.205 607.616 223.205Z" fill="#D2CADD"/>
<path d="M0.869318 8.31534V6.90909H10.6875V8.31534H6.57102V20H4.9858V8.31534H0.869318ZM11.91 20V10.1818H13.3674V11.6648H13.4696C13.6486 11.179 13.9725 10.7848 14.4412 10.4822C14.91 10.1797 15.4384 10.0284 16.0265 10.0284C16.1373 10.0284 16.2757 10.0305 16.4419 10.0348C16.6081 10.0391 16.7338 10.0455 16.8191 10.054V11.5881C16.7679 11.5753 16.6507 11.5561 16.4675 11.5305C16.2885 11.5007 16.0989 11.4858 15.8986 11.4858C15.4213 11.4858 14.9952 11.5859 14.6202 11.7862C14.2495 11.9822 13.9554 12.255 13.7381 12.6044C13.525 12.9496 13.4185 13.3437 13.4185 13.7869V20H11.91ZM22.4249 20.2045C21.4789 20.2045 20.6628 19.9957 19.9767 19.5781C19.2949 19.1562 18.7686 18.5682 18.3979 17.8139C18.0314 17.0554 17.8482 16.1733 17.8482 15.1676C17.8482 14.1619 18.0314 13.2756 18.3979 12.5085C18.7686 11.7372 19.2843 11.1364 19.9448 10.706C20.6096 10.2713 21.3851 10.054 22.2715 10.054C22.7828 10.054 23.2878 10.1392 23.7864 10.3097C24.285 10.4801 24.7388 10.7571 25.1479 11.1406C25.557 11.5199 25.883 12.0227 26.1259 12.6491C26.3688 13.2756 26.4902 14.0469 26.4902 14.9631V15.6023H18.9221V14.2983H24.9561C24.9561 13.7443 24.8453 13.25 24.6238 12.8153C24.4064 12.3807 24.0953 12.0376 23.6905 11.7862C23.29 11.5348 22.8169 11.4091 22.2715 11.4091C21.6706 11.4091 21.1507 11.5582 20.7118 11.8565C20.2772 12.1506 19.9426 12.5341 19.7083 13.0071C19.4739 13.4801 19.3567 13.9872 19.3567 14.5284V15.3977C19.3567 16.1392 19.4846 16.7678 19.7402 17.2834C20.0002 17.7947 20.3603 18.1847 20.8205 18.4531C21.2807 18.7173 21.8155 18.8494 22.4249 18.8494C22.8212 18.8494 23.1792 18.794 23.4988 18.6832C23.8226 18.5682 24.1017 18.3977 24.3361 18.1719C24.5705 17.9418 24.7516 17.6562 24.8794 17.3153L26.3368 17.7244C26.1834 18.2188 25.9256 18.6534 25.5634 19.0284C25.2012 19.3991 24.7537 19.6889 24.2211 19.8977C23.6884 20.1023 23.0897 20.2045 22.4249 20.2045ZM31.6742 20.2301C31.052 20.2301 30.4874 20.1129 29.9803 19.8786C29.4732 19.6399 29.0705 19.2969 28.7722 18.8494C28.4739 18.3977 28.3248 17.8523 28.3248 17.2131C28.3248 16.6506 28.4355 16.1946 28.6571 15.8452C28.8787 15.4915 29.1749 15.2145 29.5456 15.0142C29.9164 14.8139 30.3255 14.6648 30.7729 14.5668C31.2246 14.4645 31.6784 14.3835 32.1344 14.3239C32.731 14.2472 33.2147 14.1896 33.5854 14.1513C33.9604 14.1087 34.2331 14.0384 34.4036 13.9403C34.5783 13.8423 34.6657 13.6719 34.6657 13.429V13.3778C34.6657 12.7472 34.4931 12.2571 34.1479 11.9077C33.807 11.5582 33.2892 11.3835 32.5946 11.3835C31.8745 11.3835 31.3098 11.5412 30.9007 11.8565C30.4917 12.1719 30.204 12.5085 30.0378 12.8665L28.606 12.3551C28.8617 11.7585 29.2026 11.294 29.6287 10.9616C30.0591 10.625 30.5279 10.3906 31.035 10.2585C31.5463 10.1222 32.0492 10.054 32.5435 10.054C32.8588 10.054 33.2211 10.0923 33.6301 10.169C34.0435 10.2415 34.4419 10.3928 34.8255 10.6229C35.2132 10.853 35.535 11.2003 35.7907 11.6648C36.0463 12.1293 36.1742 12.7514 36.1742 13.5312V20H34.6657V18.6705H34.589C34.4867 18.8835 34.3162 19.1115 34.0776 19.3544C33.839 19.5973 33.5215 19.804 33.1252 19.9744C32.7289 20.1449 32.2452 20.2301 31.6742 20.2301ZM31.9043 18.875C32.5009 18.875 33.0037 18.7578 33.4128 18.5234C33.8262 18.2891 34.1373 17.9865 34.3461 17.6158C34.5591 17.245 34.6657 16.8551 34.6657 16.446V15.0653C34.6017 15.142 34.4611 15.2124 34.2438 15.2763C34.0307 15.3359 33.7836 15.3892 33.5023 15.4361C33.2253 15.4787 32.9547 15.517 32.6905 15.5511C32.4306 15.581 32.2196 15.6065 32.0577 15.6278C31.6657 15.679 31.2992 15.7621 30.9583 15.8771C30.6216 15.9879 30.3489 16.1562 30.1401 16.3821C29.9355 16.6037 29.8333 16.9062 29.8333 17.2898C29.8333 17.8139 30.0272 18.2102 30.415 18.4787C30.807 18.7429 31.3034 18.875 31.9043 18.875ZM45.8821 12.3807L44.527 12.7642C44.4418 12.5384 44.3161 12.3189 44.1499 12.1058C43.9879 11.8885 43.7663 11.7095 43.4851 11.5689C43.2038 11.4283 42.8438 11.358 42.4048 11.358C41.804 11.358 41.3033 11.4964 40.9027 11.7734C40.5064 12.0462 40.3082 12.3935 40.3082 12.8153C40.3082 13.1903 40.4446 13.4865 40.7173 13.7038C40.9901 13.9212 41.4162 14.1023 41.9957 14.2472L43.4531 14.6051C44.331 14.8182 44.9851 15.1442 45.4155 15.5831C45.8459 16.0178 46.0611 16.5781 46.0611 17.2642C46.0611 17.8267 45.8991 18.3295 45.5753 18.7727C45.2557 19.2159 44.8082 19.5653 44.233 19.821C43.6577 20.0767 42.9886 20.2045 42.2259 20.2045C41.2244 20.2045 40.3956 19.9872 39.7393 19.5526C39.0831 19.1179 38.6676 18.483 38.4929 17.6477L39.9247 17.2898C40.0611 17.8182 40.3189 18.2145 40.6982 18.4787C41.0817 18.7429 41.5824 18.875 42.2003 18.875C42.9034 18.875 43.4616 18.7259 43.875 18.4276C44.2926 18.125 44.5014 17.7628 44.5014 17.3409C44.5014 17 44.3821 16.7145 44.1435 16.4844C43.9048 16.25 43.5384 16.0753 43.044 15.9602L41.4077 15.5767C40.5085 15.3636 39.848 15.0334 39.4261 14.5859C39.0085 14.1342 38.7997 13.5696 38.7997 12.892C38.7997 12.3381 38.9553 11.848 39.2663 11.4219C39.5817 10.9957 40.0099 10.6612 40.5511 10.4183C41.0966 10.1754 41.7145 10.054 42.4048 10.054C43.3764 10.054 44.1392 10.267 44.6932 10.6932C45.2514 11.1193 45.6477 11.6818 45.8821 12.3807ZM54.5194 15.9858V10.1818H56.0279V20H54.5194V18.3381H54.4171C54.187 18.8366 53.829 19.2607 53.3432 19.6101C52.8574 19.9553 52.2438 20.1278 51.5023 20.1278C50.8887 20.1278 50.3432 19.9936 49.8659 19.7251C49.3887 19.4524 49.0137 19.0433 48.7409 18.4979C48.4682 17.9482 48.3319 17.2557 48.3319 16.4205V10.1818H49.8404V16.3182C49.8404 17.0341 50.0407 17.6051 50.4412 18.0312C50.8461 18.4574 51.3617 18.6705 51.9881 18.6705C52.3631 18.6705 52.7445 18.5746 53.1323 18.3828C53.5243 18.1911 53.8525 17.897 54.1167 17.5007C54.3851 17.1044 54.5194 16.5994 54.5194 15.9858ZM58.7908 20V10.1818H60.2482V11.6648H60.3505C60.5295 11.179 60.8533 10.7848 61.3221 10.4822C61.7908 10.1797 62.3192 10.0284 62.9073 10.0284C63.0181 10.0284 63.1566 10.0305 63.3228 10.0348C63.489 10.0391 63.6147 10.0455 63.6999 10.054V11.5881C63.6488 11.5753 63.5316 11.5561 63.3484 11.5305C63.1694 11.5007 62.9798 11.4858 62.7795 11.4858C62.3022 11.4858 61.8761 11.5859 61.5011 11.7862C61.1303 11.9822 60.8363 12.255 60.619 12.6044C60.4059 12.9496 60.2994 13.3437 60.2994 13.7869V20H58.7908ZM66.7585 23.6818C66.5028 23.6818 66.2749 23.6605 66.0746 23.6179C65.8743 23.5795 65.7358 23.5412 65.6591 23.5028L66.0426 22.1733C66.4091 22.267 66.733 22.3011 67.0142 22.2756C67.2955 22.25 67.5447 22.1243 67.7621 21.8984C67.9837 21.6768 68.1861 21.3168 68.3693 20.8182L68.6506 20.0511L65.0199 10.1818H66.6562L69.3665 18.0057H69.4688L72.179 10.1818H73.8153L69.6477 21.4318C69.4602 21.9389 69.228 22.3587 68.951 22.6911C68.674 23.0277 68.3523 23.277 67.9858 23.4389C67.6236 23.6009 67.2145 23.6818 66.7585 23.6818ZM84.5763 20.179C83.7156 20.179 82.9741 20.0213 82.3519 19.706C81.7298 19.3906 81.2504 18.9581 80.9137 18.4084C80.5771 17.8587 80.4087 17.2301 80.4087 16.5227C80.4087 15.9773 80.5238 15.4936 80.7539 15.0717C80.9883 14.6456 81.31 14.2514 81.7191 13.8892C82.1325 13.5227 82.6076 13.1562 83.1445 12.7898L85.0366 11.3835C85.4073 11.1406 85.7035 10.8807 85.9251 10.6037C86.1509 10.3267 86.2638 9.96449 86.2638 9.51705C86.2638 9.18466 86.1168 8.86293 85.8228 8.55185C85.533 8.24077 85.1516 8.08523 84.6786 8.08523C84.3462 8.08523 84.0522 8.17045 83.7965 8.34091C83.5451 8.5071 83.3469 8.72017 83.2021 8.98011C83.0614 9.23579 82.9911 9.5 82.9911 9.77273C82.9911 10.0795 83.0742 10.3906 83.2404 10.706C83.4109 11.017 83.6261 11.3366 83.886 11.6648C84.1502 11.9886 84.4229 12.321 84.7042 12.6619L90.7127 20H88.8974L83.9371 14.017C83.4769 13.4631 83.0593 12.9602 82.6843 12.5085C82.3093 12.0568 82.011 11.6115 81.7894 11.1726C81.5678 10.7337 81.457 10.2585 81.457 9.74716C81.457 9.15909 81.587 8.64347 81.8469 8.20028C82.1112 7.75284 82.4798 7.40554 82.9528 7.15838C83.43 6.90696 83.9883 6.78125 84.6275 6.78125C85.2837 6.78125 85.8484 6.90909 86.3214 7.16477C86.7944 7.41619 87.1587 7.75071 87.4144 8.16832C87.6701 8.58168 87.7979 9.03125 87.7979 9.51705C87.7979 10.1435 87.6424 10.6868 87.3313 11.147C87.0202 11.6072 86.5962 12.0355 86.0593 12.4318L83.4513 14.375C82.8633 14.8097 82.4648 15.2315 82.256 15.6406C82.0472 16.0497 81.9428 16.3437 81.9428 16.5227C81.9428 16.9318 82.0494 17.3132 82.2624 17.6669C82.4755 18.0206 82.7759 18.3061 83.1637 18.5234C83.5515 18.7408 84.0053 18.8494 84.5252 18.8494C85.0195 18.8494 85.5011 18.745 85.9698 18.5362C86.4386 18.3232 86.8626 18.0163 87.2418 17.6158C87.6254 17.2152 87.9279 16.7337 88.1495 16.1712C88.3754 15.6087 88.4883 14.9759 88.4883 14.2727H89.9457C89.9457 15.142 89.8455 15.8516 89.6452 16.4013C89.445 16.951 89.2191 17.3814 88.9677 17.6925C88.7163 18.0036 88.5138 18.2358 88.3604 18.3892C88.3093 18.4531 88.2624 18.517 88.2198 18.581C88.1772 18.6449 88.1303 18.7088 88.0792 18.7727C87.6573 19.2457 87.1246 19.5994 86.4812 19.8338C85.8377 20.0639 85.2028 20.179 84.5763 20.179ZM101.689 20H97.6497V6.90909H101.868C103.138 6.90909 104.225 7.17116 105.128 7.69531C106.032 8.2152 106.724 8.96307 107.206 9.93892C107.687 10.9105 107.928 12.0739 107.928 13.429C107.928 14.7926 107.685 15.9666 107.199 16.951C106.714 17.9311 106.006 18.6854 105.077 19.2138C104.148 19.7379 103.019 20 101.689 20ZM99.2349 18.5938H101.587C102.67 18.5938 103.567 18.3849 104.278 17.9673C104.99 17.5497 105.52 16.9553 105.87 16.1839C106.219 15.4126 106.394 14.4943 106.394 13.429C106.394 12.3722 106.221 11.4624 105.876 10.6996C105.531 9.93253 105.015 9.34446 104.329 8.93537C103.643 8.52202 102.789 8.31534 101.766 8.31534H99.2349V18.5938ZM114.499 20.2045C113.553 20.2045 112.737 19.9957 112.051 19.5781C111.369 19.1562 110.843 18.5682 110.472 17.8139C110.106 17.0554 109.922 16.1733 109.922 15.1676C109.922 14.1619 110.106 13.2756 110.472 12.5085C110.843 11.7372 111.358 11.1364 112.019 10.706C112.684 10.2713 113.459 10.054 114.346 10.054C114.857 10.054 115.362 10.1392 115.861 10.3097C116.359 10.4801 116.813 10.7571 117.222 11.1406C117.631 11.5199 117.957 12.0227 118.2 12.6491C118.443 13.2756 118.564 14.0469 118.564 14.9631V15.6023H110.996V14.2983H117.03C117.03 13.7443 116.92 13.25 116.698 12.8153C116.481 12.3807 116.17 12.0376 115.765 11.7862C115.364 11.5348 114.891 11.4091 114.346 11.4091C113.745 11.4091 113.225 11.5582 112.786 11.8565C112.351 12.1506 112.017 12.5341 111.782 13.0071C111.548 13.4801 111.431 13.9872 111.431 14.5284V15.3977C111.431 16.1392 111.559 16.7678 111.814 17.2834C112.074 17.7947 112.434 18.1847 112.895 18.4531C113.355 18.7173 113.89 18.8494 114.499 18.8494C114.895 18.8494 115.253 18.794 115.573 18.6832C115.897 18.5682 116.176 18.3977 116.41 18.1719C116.645 17.9418 116.826 17.6562 116.954 17.3153L118.411 17.7244C118.258 18.2188 118 18.6534 117.638 19.0284C117.275 19.3991 116.828 19.6889 116.295 19.8977C115.763 20.1023 115.164 20.2045 114.499 20.2045ZM128.589 10.1818L124.958 20H123.424L119.793 10.1818H121.43L124.14 18.0057H124.242L126.952 10.1818H128.589ZM134.345 20.2045C133.399 20.2045 132.583 19.9957 131.897 19.5781C131.215 19.1562 130.689 18.5682 130.318 17.8139C129.951 17.0554 129.768 16.1733 129.768 15.1676C129.768 14.1619 129.951 13.2756 130.318 12.5085C130.689 11.7372 131.204 11.1364 131.865 10.706C132.529 10.2713 133.305 10.054 134.191 10.054C134.703 10.054 135.208 10.1392 135.706 10.3097C136.205 10.4801 136.659 10.7571 137.068 11.1406C137.477 11.5199 137.803 12.0227 138.046 12.6491C138.289 13.2756 138.41 14.0469 138.41 14.9631V15.6023H130.842V14.2983H136.876C136.876 13.7443 136.765 13.25 136.544 12.8153C136.326 12.3807 136.015 12.0376 135.61 11.7862C135.21 11.5348 134.737 11.4091 134.191 11.4091C133.591 11.4091 133.071 11.5582 132.632 11.8565C132.197 12.1506 131.863 12.5341 131.628 13.0071C131.394 13.4801 131.277 13.9872 131.277 14.5284V15.3977C131.277 16.1392 131.404 16.7678 131.66 17.2834C131.92 17.7947 132.28 18.1847 132.74 18.4531C133.201 18.7173 133.735 18.8494 134.345 18.8494C134.741 18.8494 135.099 18.794 135.419 18.6832C135.743 18.5682 136.022 18.3977 136.256 18.1719C136.49 17.9418 136.672 17.6562 136.799 17.3153L138.257 17.7244C138.103 18.2188 137.846 18.6534 137.483 19.0284C137.121 19.3991 136.674 19.6889 136.141 19.8977C135.608 20.1023 135.01 20.2045 134.345 20.2045ZM142.213 6.90909V20H140.705V6.90909H142.213ZM148.965 20.2045C148.079 20.2045 147.301 19.9936 146.632 19.5717C145.967 19.1499 145.447 18.5597 145.072 17.8011C144.702 17.0426 144.516 16.1562 144.516 15.142C144.516 14.1193 144.702 13.2266 145.072 12.4638C145.447 11.701 145.967 11.1087 146.632 10.6868C147.301 10.2649 148.079 10.054 148.965 10.054C149.851 10.054 150.627 10.2649 151.292 10.6868C151.961 11.1087 152.481 11.701 152.851 12.4638C153.226 13.2266 153.414 14.1193 153.414 15.142C153.414 16.1562 153.226 17.0426 152.851 17.8011C152.481 18.5597 151.961 19.1499 151.292 19.5717C150.627 19.9936 149.851 20.2045 148.965 20.2045ZM148.965 18.8494C149.638 18.8494 150.192 18.6768 150.627 18.3317C151.062 17.9865 151.383 17.5327 151.592 16.9702C151.801 16.4077 151.905 15.7983 151.905 15.142C151.905 14.4858 151.801 13.8743 151.592 13.3075C151.383 12.7408 151.062 12.2827 150.627 11.9332C150.192 11.5838 149.638 11.4091 148.965 11.4091C148.292 11.4091 147.738 11.5838 147.303 11.9332C146.868 12.2827 146.547 12.7408 146.338 13.3075C146.129 13.8743 146.025 14.4858 146.025 15.142C146.025 15.7983 146.129 16.4077 146.338 16.9702C146.547 17.5327 146.868 17.9865 147.303 18.3317C147.738 18.6768 148.292 18.8494 148.965 18.8494ZM155.717 23.6818V10.1818H157.174V11.7415H157.353C157.464 11.571 157.617 11.3537 157.813 11.0895C158.013 10.821 158.299 10.5824 158.67 10.3736C159.045 10.1605 159.552 10.054 160.191 10.054C161.018 10.054 161.746 10.2607 162.377 10.674C163.008 11.0874 163.5 11.6733 163.854 12.4318C164.207 13.1903 164.384 14.0852 164.384 15.1165C164.384 16.1562 164.207 17.0575 163.854 17.8203C163.5 18.5788 163.01 19.1669 162.384 19.5845C161.757 19.9979 161.035 20.2045 160.217 20.2045C159.586 20.2045 159.081 20.1001 158.702 19.8913C158.322 19.6783 158.031 19.4375 157.826 19.169C157.621 18.8963 157.464 18.6705 157.353 18.4915H157.225V23.6818H155.717ZM157.2 15.0909C157.2 15.8324 157.308 16.4865 157.526 17.0533C157.743 17.6158 158.06 18.0568 158.478 18.3764C158.896 18.6918 159.407 18.8494 160.012 18.8494C160.643 18.8494 161.169 18.6832 161.591 18.3509C162.017 18.0142 162.337 17.5625 162.55 16.9957C162.767 16.4247 162.876 15.7898 162.876 15.0909C162.876 14.4006 162.769 13.7784 162.556 13.2244C162.347 12.6662 162.03 12.2251 161.604 11.9013C161.182 11.5732 160.651 11.4091 160.012 11.4091C159.398 11.4091 158.883 11.5646 158.465 11.8757C158.048 12.1825 157.732 12.6129 157.519 13.1669C157.306 13.7166 157.2 14.358 157.2 15.0909ZM166.685 20V10.1818H168.143V11.7159H168.271C168.475 11.1918 168.805 10.7848 169.261 10.495C169.717 10.201 170.265 10.054 170.904 10.054C171.552 10.054 172.091 10.201 172.521 10.495C172.956 10.7848 173.295 11.1918 173.538 11.7159H173.64C173.891 11.2088 174.268 10.8061 174.771 10.5078C175.274 10.2053 175.877 10.054 176.58 10.054C177.458 10.054 178.176 10.3288 178.734 10.8786C179.293 11.424 179.572 12.2741 179.572 13.429V20H178.063V13.429C178.063 12.7045 177.865 12.1868 177.469 11.8757C177.072 11.5646 176.606 11.4091 176.069 11.4091C175.379 11.4091 174.844 11.6179 174.464 12.0355C174.085 12.4489 173.896 12.973 173.896 13.608V20H172.362V13.2756C172.362 12.7173 172.18 12.2678 171.818 11.9268C171.456 11.5817 170.989 11.4091 170.418 11.4091C170.026 11.4091 169.66 11.5135 169.319 11.7223C168.982 11.9311 168.71 12.2209 168.501 12.5916C168.296 12.9581 168.194 13.3821 168.194 13.8636V20H166.685ZM186.446 20.2045C185.5 20.2045 184.684 19.9957 183.998 19.5781C183.316 19.1562 182.79 18.5682 182.419 17.8139C182.053 17.0554 181.87 16.1733 181.87 15.1676C181.87 14.1619 182.053 13.2756 182.419 12.5085C182.79 11.7372 183.306 11.1364 183.966 10.706C184.631 10.2713 185.407 10.054 186.293 10.054C186.804 10.054 187.309 10.1392 187.808 10.3097C188.306 10.4801 188.76 10.7571 189.169 11.1406C189.578 11.5199 189.904 12.0227 190.147 12.6491C190.39 13.2756 190.512 14.0469 190.512 14.9631V15.6023H182.944V14.2983H188.978C188.978 13.7443 188.867 13.25 188.645 12.8153C188.428 12.3807 188.117 12.0376 187.712 11.7862C187.311 11.5348 186.838 11.4091 186.293 11.4091C185.692 11.4091 185.172 11.5582 184.733 11.8565C184.299 12.1506 183.964 12.5341 183.73 13.0071C183.495 13.4801 183.378 13.9872 183.378 14.5284V15.3977C183.378 16.1392 183.506 16.7678 183.762 17.2834C184.022 17.7947 184.382 18.1847 184.842 18.4531C185.302 18.7173 185.837 18.8494 186.446 18.8494C186.843 18.8494 187.201 18.794 187.52 18.6832C187.844 18.5682 188.123 18.3977 188.358 18.1719C188.592 17.9418 188.773 17.6562 188.901 17.3153L190.358 17.7244C190.205 18.2188 189.947 18.6534 189.585 19.0284C189.223 19.3991 188.775 19.6889 188.243 19.8977C187.71 20.1023 187.111 20.2045 186.446 20.2045ZM194.315 14.0938V20H192.806V10.1818H194.264V11.7159H194.392C194.622 11.2173 194.971 10.8168 195.44 10.5142C195.909 10.2074 196.514 10.054 197.255 10.054C197.92 10.054 198.502 10.1903 199 10.4631C199.499 10.7315 199.887 11.1406 200.164 11.6903C200.441 12.2358 200.579 12.9261 200.579 13.7614V20H199.071V13.8636C199.071 13.0923 198.87 12.4915 198.47 12.0611C198.069 11.6264 197.52 11.4091 196.821 11.4091C196.339 11.4091 195.909 11.5135 195.529 11.7223C195.154 11.9311 194.858 12.2358 194.641 12.6364C194.424 13.0369 194.315 13.5227 194.315 14.0938ZM207.606 10.1818V11.4602H202.518V10.1818H207.606ZM204.001 7.82955H205.509V17.1875C205.509 17.6136 205.571 17.9332 205.694 18.1463C205.822 18.3551 205.984 18.4957 206.18 18.5682C206.381 18.6364 206.591 18.6705 206.813 18.6705C206.979 18.6705 207.116 18.6619 207.222 18.6449C207.329 18.6236 207.414 18.6065 207.478 18.5938L207.785 19.9489C207.682 19.9872 207.54 20.0256 207.356 20.0639C207.173 20.1065 206.941 20.1278 206.66 20.1278C206.233 20.1278 205.816 20.0362 205.407 19.853C205.002 19.6697 204.665 19.3906 204.397 19.0156C204.133 18.6406 204.001 18.1676 204.001 17.5966V7.82955Z" fill="#D2CADD"/>
<path d="M1.58523 115V101.909H3.17045V113.594H9.25568V115H1.58523ZM11.5057 115V105.182H13.0142V115H11.5057ZM12.2727 103.545C11.9787 103.545 11.7251 103.445 11.5121 103.245C11.3033 103.045 11.1989 102.804 11.1989 102.523C11.1989 102.241 11.3033 102.001 11.5121 101.8C11.7251 101.6 11.9787 101.5 12.2727 101.5C12.5668 101.5 12.8182 101.6 13.027 101.8C13.2401 102.001 13.3466 102.241 13.3466 102.523C13.3466 102.804 13.2401 103.045 13.027 103.245C12.8182 103.445 12.5668 103.545 12.2727 103.545ZM22.476 118.682V113.491H22.3482C22.2374 113.67 22.0797 113.896 21.8752 114.169C21.6706 114.437 21.3787 114.678 20.9995 114.891C20.6202 115.1 20.1152 115.205 19.4846 115.205C18.6664 115.205 17.9441 114.998 17.3176 114.585C16.6912 114.167 16.2012 113.579 15.8475 112.82C15.4938 112.058 15.3169 111.156 15.3169 110.116C15.3169 109.085 15.4938 108.19 15.8475 107.432C16.2012 106.673 16.6934 106.087 17.324 105.674C17.9547 105.261 18.6834 105.054 19.5101 105.054C20.1493 105.054 20.6543 105.161 21.025 105.374C21.4 105.582 21.6855 105.821 21.8816 106.089C22.0819 106.354 22.2374 106.571 22.3482 106.741H22.5272V105.182H23.9846V118.682H22.476ZM19.6891 113.849C20.2942 113.849 20.8056 113.692 21.2232 113.376C21.6408 113.057 21.9583 112.616 22.1756 112.053C22.3929 111.487 22.5016 110.832 22.5016 110.091C22.5016 109.358 22.3951 108.717 22.182 108.167C21.9689 107.613 21.6536 107.183 21.236 106.876C20.8184 106.565 20.3027 106.409 19.6891 106.409C19.0499 106.409 18.5172 106.573 18.0911 106.901C17.6692 107.225 17.3517 107.666 17.1387 108.224C16.9299 108.778 16.8255 109.401 16.8255 110.091C16.8255 110.79 16.932 111.425 17.1451 111.996C17.3624 112.562 17.682 113.014 18.1039 113.351C18.53 113.683 19.0584 113.849 19.6891 113.849ZM32.9334 110.986V105.182H34.4419V115H32.9334V113.338H32.8311C32.601 113.837 32.2431 114.261 31.7573 114.61C31.2715 114.955 30.6578 115.128 29.9164 115.128C29.3027 115.128 28.7573 114.994 28.28 114.725C27.8027 114.452 27.4277 114.043 27.155 113.498C26.8823 112.948 26.7459 112.256 26.7459 111.42V105.182H28.2544V111.318C28.2544 112.034 28.4547 112.605 28.8553 113.031C29.2601 113.457 29.7757 113.67 30.4022 113.67C30.7772 113.67 31.1586 113.575 31.5463 113.383C31.9384 113.191 32.2665 112.897 32.5307 112.501C32.7992 112.104 32.9334 111.599 32.9334 110.986ZM37.2049 115V105.182H38.7134V115H37.2049ZM37.9719 103.545C37.6779 103.545 37.4244 103.445 37.2113 103.245C37.0025 103.045 36.8981 102.804 36.8981 102.523C36.8981 102.241 37.0025 102.001 37.2113 101.8C37.4244 101.6 37.6779 101.5 37.9719 101.5C38.266 101.5 38.5174 101.6 38.7262 101.8C38.9393 102.001 39.0458 102.241 39.0458 102.523C39.0458 102.804 38.9393 103.045 38.7262 103.245C38.5174 103.445 38.266 103.545 37.9719 103.545ZM45.1838 115.205C44.3656 115.205 43.6433 114.998 43.0169 114.585C42.3904 114.167 41.9004 113.579 41.5467 112.82C41.193 112.058 41.0162 111.156 41.0162 110.116C41.0162 109.085 41.193 108.19 41.5467 107.432C41.9004 106.673 42.3926 106.087 43.0233 105.674C43.6539 105.261 44.3826 105.054 45.2093 105.054C45.8485 105.054 46.3535 105.161 46.7243 105.374C47.0993 105.582 47.3848 105.821 47.5808 106.089C47.7811 106.354 47.9366 106.571 48.0474 106.741H48.1752V101.909H49.6838V115H48.2264V113.491H48.0474C47.9366 113.67 47.7789 113.896 47.5744 114.169C47.3699 114.437 47.0779 114.678 46.6987 114.891C46.3194 115.1 45.8145 115.205 45.1838 115.205ZM45.3883 113.849C45.9934 113.849 46.5048 113.692 46.9224 113.376C47.34 113.057 47.6575 112.616 47.8748 112.053C48.0922 111.487 48.2008 110.832 48.2008 110.091C48.2008 109.358 48.0943 108.717 47.8812 108.167C47.6681 107.613 47.3528 107.183 46.9352 106.876C46.5176 106.565 46.002 106.409 45.3883 106.409C44.7491 106.409 44.2164 106.573 43.7903 106.901C43.3684 107.225 43.051 107.666 42.8379 108.224C42.6291 108.778 42.5247 109.401 42.5247 110.091C42.5247 110.79 42.6312 111.425 42.8443 111.996C43.0616 112.562 43.3812 113.014 43.8031 113.351C44.2292 113.683 44.7576 113.849 45.3883 113.849ZM52.6561 115V105.182H54.1646V115H52.6561ZM53.4231 103.545C53.1291 103.545 52.8755 103.445 52.6625 103.245C52.4537 103.045 52.3493 102.804 52.3493 102.523C52.3493 102.241 52.4537 102.001 52.6625 101.8C52.8755 101.6 53.1291 101.5 53.4231 101.5C53.7172 101.5 53.9686 101.6 54.1774 101.8C54.3904 102.001 54.497 102.241 54.497 102.523C54.497 102.804 54.3904 103.045 54.1774 103.245C53.9686 103.445 53.7172 103.545 53.4231 103.545ZM61.1974 105.182V106.46H56.1094V105.182H61.1974ZM57.5923 102.83H59.1009V112.188C59.1009 112.614 59.1626 112.933 59.2862 113.146C59.4141 113.355 59.576 113.496 59.772 113.568C59.9723 113.636 60.1832 113.67 60.4048 113.67C60.571 113.67 60.7074 113.662 60.8139 113.645C60.9205 113.624 61.0057 113.607 61.0696 113.594L61.3764 114.949C61.2741 114.987 61.1314 115.026 60.9482 115.064C60.7649 115.107 60.5327 115.128 60.2514 115.128C59.8253 115.128 59.4077 115.036 58.9986 114.853C58.5938 114.67 58.2571 114.391 57.9886 114.016C57.7244 113.641 57.5923 113.168 57.5923 112.597V102.83ZM64.4382 118.682C64.1825 118.682 63.9545 118.661 63.7543 118.618C63.554 118.58 63.4155 118.541 63.3388 118.503L63.7223 117.173C64.0888 117.267 64.4126 117.301 64.6939 117.276C64.9751 117.25 65.2244 117.124 65.4418 116.898C65.6634 116.677 65.8658 116.317 66.049 115.818L66.3303 115.051L62.6996 105.182H64.3359L67.0462 113.006H67.1484L69.8587 105.182H71.495L67.3274 116.432C67.1399 116.939 66.9077 117.359 66.6307 117.691C66.3537 118.028 66.032 118.277 65.6655 118.439C65.3033 118.601 64.8942 118.682 64.4382 118.682Z" fill="#D2CADD"/>
<rect x="169" y="35" width="40" height="40" rx="20" fill="white"/>
<path d="M185.157 48.4091V61.5H182.389V51.0362H182.312L179.314 52.9155V50.4609L182.555 48.4091H185.157ZM193.401 61.7876C192.301 61.7834 191.355 61.5128 190.563 60.9759C189.775 60.4389 189.167 59.6612 188.741 58.6428C188.319 57.6243 188.11 56.3991 188.115 54.9673C188.115 53.5398 188.326 52.3232 188.748 51.3175C189.174 50.3118 189.781 49.5469 190.569 49.0227C191.362 48.4943 192.306 48.2301 193.401 48.2301C194.496 48.2301 195.438 48.4943 196.226 49.0227C197.019 49.5511 197.628 50.3182 198.054 51.3239C198.48 52.3253 198.691 53.5398 198.687 54.9673C198.687 56.4034 198.474 57.6307 198.048 58.6491C197.626 59.6676 197.021 60.4453 196.233 60.9822C195.444 61.5192 194.5 61.7876 193.401 61.7876ZM193.401 59.4929C194.151 59.4929 194.75 59.1158 195.197 58.3615C195.645 57.6072 195.866 56.4759 195.862 54.9673C195.862 53.9744 195.76 53.1477 195.555 52.4872C195.355 51.8267 195.069 51.3303 194.699 50.9979C194.332 50.6655 193.9 50.4993 193.401 50.4993C192.655 50.4993 192.059 50.8722 191.611 51.6179C191.164 52.3636 190.938 53.4801 190.934 54.9673C190.934 55.973 191.034 56.8125 191.234 57.4858C191.439 58.1548 191.726 58.6577 192.097 58.9943C192.468 59.3267 192.902 59.4929 193.401 59.4929Z" fill="#F96544"/>
<rect x="496" y="196" width="40" height="40" rx="20" fill="white"/>
<path d="M509.798 222.679C508.814 222.679 507.938 222.519 507.171 222.2C506.408 221.876 505.809 221.435 505.375 220.876C504.94 220.318 504.723 219.685 504.723 218.978C504.723 218.433 504.846 217.932 505.094 217.476C505.345 217.016 505.686 216.634 506.116 216.332C506.547 216.025 507.028 215.829 507.561 215.744V215.654C506.862 215.513 506.295 215.175 505.861 214.638C505.426 214.097 505.209 213.468 505.209 212.752C505.209 212.075 505.407 211.472 505.803 210.943C506.199 210.411 506.743 209.993 507.433 209.69C508.128 209.384 508.916 209.23 509.798 209.23C510.68 209.23 511.466 209.384 512.157 209.69C512.851 209.997 513.397 210.417 513.793 210.95C514.189 211.478 514.39 212.079 514.394 212.752C514.39 213.472 514.168 214.101 513.729 214.638C513.29 215.175 512.728 215.513 512.042 215.654V215.744C512.566 215.829 513.041 216.025 513.467 216.332C513.898 216.634 514.238 217.016 514.49 217.476C514.746 217.932 514.876 218.433 514.88 218.978C514.876 219.685 514.656 220.318 514.221 220.876C513.787 221.435 513.186 221.876 512.419 222.2C511.656 222.519 510.782 222.679 509.798 222.679ZM509.798 220.646C510.237 220.646 510.621 220.567 510.949 220.41C511.277 220.248 511.532 220.026 511.716 219.745C511.903 219.46 511.997 219.131 511.997 218.761C511.997 218.381 511.901 218.047 511.709 217.757C511.518 217.463 511.258 217.233 510.93 217.067C510.601 216.896 510.224 216.811 509.798 216.811C509.376 216.811 508.999 216.896 508.667 217.067C508.334 217.233 508.072 217.463 507.881 217.757C507.693 218.047 507.599 218.381 507.599 218.761C507.599 219.131 507.691 219.46 507.874 219.745C508.057 220.026 508.315 220.248 508.648 220.41C508.98 220.567 509.363 220.646 509.798 220.646ZM509.798 214.798C510.165 214.798 510.491 214.723 510.776 214.574C511.062 214.425 511.285 214.218 511.447 213.954C511.609 213.69 511.69 213.385 511.69 213.04C511.69 212.699 511.609 212.401 511.447 212.145C511.285 211.885 511.064 211.683 510.782 211.538C510.501 211.388 510.173 211.314 509.798 211.314C509.427 211.314 509.099 211.388 508.814 211.538C508.528 211.683 508.305 211.885 508.143 212.145C507.985 212.401 507.906 212.699 507.906 213.04C507.906 213.385 507.987 213.69 508.149 213.954C508.311 214.218 508.535 214.425 508.82 214.574C509.106 214.723 509.432 214.798 509.798 214.798ZM521.948 222.788C520.848 222.783 519.902 222.513 519.11 221.976C518.321 221.439 517.714 220.661 517.288 219.643C516.866 218.624 516.657 217.399 516.662 215.967C516.662 214.54 516.873 213.323 517.294 212.317C517.721 211.312 518.328 210.547 519.116 210.023C519.909 209.494 520.853 209.23 521.948 209.23C523.043 209.23 523.985 209.494 524.773 210.023C525.566 210.551 526.175 211.318 526.601 212.324C527.027 213.325 527.238 214.54 527.234 215.967C527.234 217.403 527.021 218.631 526.595 219.649C526.173 220.668 525.568 221.445 524.779 221.982C523.991 222.519 523.047 222.788 521.948 222.788ZM521.948 220.493C522.698 220.493 523.297 220.116 523.744 219.362C524.191 218.607 524.413 217.476 524.409 215.967C524.409 214.974 524.306 214.148 524.102 213.487C523.902 212.827 523.616 212.33 523.245 211.998C522.879 211.665 522.446 211.499 521.948 211.499C521.202 211.499 520.605 211.872 520.158 212.618C519.711 213.364 519.485 214.48 519.48 215.967C519.48 216.973 519.581 217.812 519.781 218.486C519.985 219.155 520.273 219.658 520.644 219.994C521.015 220.327 521.449 220.493 521.948 220.493Z" fill="#782CDC"/>
<rect x="71" y="130" width="40" height="40" rx="20" fill="white"/>
<path d="M87.1568 143.409V156.5H84.389V146.036H84.3123L81.3145 147.915V145.461L84.5552 143.409H87.1568ZM95.4009 156.788C94.3015 156.783 93.3555 156.513 92.5629 155.976C91.7745 155.439 91.1673 154.661 90.7411 153.643C90.3192 152.624 90.1104 151.399 90.1147 149.967C90.1147 148.54 90.3256 147.323 90.7475 146.317C91.1737 145.312 91.7809 144.547 92.5692 144.023C93.3619 143.494 94.3058 143.23 95.4009 143.23C96.4961 143.23 97.4379 143.494 98.2262 144.023C99.0188 144.551 99.6282 145.318 100.054 146.324C100.48 147.325 100.691 148.54 100.687 149.967C100.687 151.403 100.474 152.631 100.048 153.649C99.6261 154.668 99.021 155.445 98.2326 155.982C97.4442 156.519 96.5004 156.788 95.4009 156.788ZM95.4009 154.493C96.1509 154.493 96.7496 154.116 97.1971 153.362C97.6445 152.607 97.8661 151.476 97.8619 149.967C97.8619 148.974 97.7596 148.148 97.555 147.487C97.3548 146.827 97.0692 146.33 96.6985 145.998C96.332 145.665 95.8995 145.499 95.4009 145.499C94.6552 145.499 94.0586 145.872 93.6112 146.618C93.1637 147.364 92.9379 148.48 92.9336 149.967C92.9336 150.973 93.0337 151.812 93.234 152.486C93.4386 153.155 93.7262 153.658 94.0969 153.994C94.4677 154.327 94.9023 154.493 95.4009 154.493Z" fill="#C548B9"/>
<defs>
<radialGradient id="paint0_angular_121_1675" cx="0" cy="0" r="1" gradientUnits="userSpaceOnUse" gradientTransform="translate(290 265) rotate(90) scale(230)">
<stop offset="0.219106" stop-color="#782CDC"/>
<stop offset="0.504615" stop-color="#330076"/>
</radialGradient>
<linearGradient id="paint1_linear_121_1675" x1="240.953" y1="243.007" x2="224.209" y2="286.222" gradientUnits="userSpaceOnUse">
<stop stop-color="#F96544"/>
<stop offset="0.255" stop-color="#F93655"/>
<stop offset="0.57" stop-color="#C548B9"/>
<stop offset="0.88" stop-color="#8E49E9"/>
</linearGradient>
<linearGradient id="paint2_linear_121_1675" x1="220.737" y1="264.517" x2="205.536" y2="303.543" gradientUnits="userSpaceOnUse">
<stop stop-color="#F96544"/>
<stop offset="0.255" stop-color="#F93655"/>
<stop offset="0.57" stop-color="#C548B9"/>
<stop offset="0.88" stop-color="#8E49E9"/>
</linearGradient>
<clipPath id="clip0_121_1675">
<rect width="253" height="44" fill="white" transform="translate(163 243)"/>
</clipPath>
</defs>
</svg>
